<svg width="85" height="17" viewBox="0 0 85 17" fill="none" xmlns="http://www.w3.org/2000/svg">
<g id="logo-ready-to-go 2" clip-path="url(#clip0_1_181)">
<g id="Camada_1-2">
<g id="Camada_2-2">
<g id="Camada_1-3">
<path id="Caminho_19854" d="M45.2655 3.72989L41.0726 13.5651C40.1772 15.6748 38.7375 16.1724 37.4106 16.1724C36.8893 16.182 36.3738 16.0836 35.8927 15.885C35.6082 15.75 35.3046 15.5398 35.4363 15.0596L35.759 13.891C35.8717 13.5072 36.0626 13.3356 36.6125 13.5072C36.813 13.5786 37.0268 13.6114 37.2387 13.6036C37.7008 13.6441 38.1342 13.3703 38.3003 12.9325L38.8674 11.7022L35.2053 3.72796C34.959 3.18992 35.3199 2.84473 35.8698 2.84473H37.5595C38.1094 2.84473 38.413 3.17064 38.6039 3.72796L40.4445 8.59541L42.2239 3.72796C42.4149 3.17257 42.7184 2.84473 43.2874 2.84473H44.5972C45.1509 2.84473 45.4908 3.18992 45.2636 3.72796L45.2655 3.72989Z" fill="#F7F7F7"/>
<path id="Caminho_19855" d="M53.2082 7.62932C53.2082 7.17999 53.2655 6.73258 53.3839 6.29868C53.6054 5.47329 54.0369 4.72312 54.6345 4.11951C54.9285 3.82253 55.2608 3.56604 55.6216 3.35584C55.9901 3.14178 56.3834 2.97593 56.7939 2.86408C57.2216 2.74837 57.6646 2.68859 58.1094 2.69052C59.402 2.6828 60.645 3.19577 61.5615 4.11565C62.0044 4.56498 62.3596 5.09531 62.6059 5.67964C62.8655 6.29482 62.9954 6.95628 62.9896 7.62353C62.9896 8.07094 62.9324 8.51834 62.814 8.95032C62.7013 9.36494 62.5352 9.76413 62.3214 10.1363C61.4526 11.6521 59.845 12.5797 58.1114 12.572C57.6684 12.572 57.2254 12.5161 56.7958 12.4003C55.5662 12.0667 54.518 11.2548 53.8765 10.144C53.6627 9.77184 53.4985 9.37458 53.3839 8.95803C53.2655 8.52413 53.2044 8.07672 53.2063 7.62739L53.2082 7.62932ZM55.9271 7.62932C55.9233 7.94559 55.9748 8.25993 56.076 8.55884C56.1715 8.83461 56.3166 9.08917 56.5075 9.30708C56.6966 9.51921 56.9276 9.68892 57.1853 9.80656C57.4679 9.93191 57.7734 9.99555 58.0808 9.99169C58.3825 9.99555 58.6803 9.93383 58.9553 9.80656C59.2092 9.68892 59.4345 9.51921 59.6178 9.30708C59.803 9.08724 59.9462 8.83268 60.034 8.55884C60.2288 7.95909 60.2288 7.31112 60.034 6.71137C59.9424 6.43174 59.8011 6.1714 59.6178 5.94384C59.2398 5.48101 58.6746 5.21873 58.0808 5.23031C57.7715 5.22645 57.466 5.29202 57.1853 5.42122C56.9257 5.54465 56.6946 5.72399 56.5075 5.94384C56.3185 6.16947 56.1734 6.42981 56.0779 6.70944C55.9748 7.00449 55.9233 7.31691 55.9252 7.62932H55.9271Z" fill="#F7F7F7"/>
<path id="Caminho_19856" d="M75.2207 7.6196C75.2207 7.17027 75.278 6.72286 75.3964 6.28896C75.6178 5.4655 76.0493 4.71533 76.647 4.11172C76.941 3.81474 77.2732 3.55825 77.6341 3.34805C78.0026 3.13399 78.3959 2.97007 78.8064 2.85822C79.2341 2.74058 79.677 2.68273 80.1219 2.68466C81.4145 2.67694 82.6575 3.18991 83.5739 4.10979C84.0188 4.55913 84.372 5.08945 84.6183 5.67378C84.878 6.28896 85.0078 6.95042 85.0021 7.61767C85.0021 8.06508 84.9448 8.51248 84.8283 8.94446C84.7157 9.35908 84.5496 9.75634 84.3377 10.1285C83.467 11.6405 81.8613 12.5661 80.1295 12.5584C79.6866 12.5584 79.2436 12.5025 78.814 12.3868C77.5844 12.0531 76.5343 11.2432 75.8947 10.1305C75.4555 9.36872 75.2264 8.50091 75.2283 7.6196H75.2226H75.2207ZM77.9377 7.6196C77.9338 7.93587 77.9854 8.25021 78.0866 8.54719C78.1801 8.82296 78.3271 9.07752 78.5181 9.29544C78.7071 9.50757 78.9381 9.6792 79.1959 9.79684C79.4785 9.92219 79.784 9.98583 80.0914 9.98197C80.393 9.98583 80.6909 9.92412 80.9658 9.79684C81.2197 9.6792 81.445 9.5095 81.6283 9.29544C81.8155 9.07559 81.9567 8.82103 82.0446 8.54719C82.2393 7.94744 82.2393 7.3014 82.0446 6.70165C81.9529 6.42202 81.8116 6.16168 81.6283 5.93412C81.2503 5.47129 80.6851 5.20902 80.0914 5.22059C79.782 5.21673 79.4766 5.2823 79.1959 5.41151C78.9362 5.53493 78.7052 5.71428 78.5181 5.93412C78.3291 6.15975 78.182 6.42009 78.0866 6.70165C77.9854 6.99671 77.9357 7.30719 77.9377 7.6196Z" fill="#F7F7F7"/>
<path id="Caminho_19857" d="M26.5103 3.12255C26.4759 3.04734 26.4263 2.9837 26.3614 2.93356C26.3079 2.87956 26.2411 2.84292 26.1666 2.82942C26.1036 2.81592 26.0387 2.80821 25.9719 2.80628H24.8626C24.7862 2.80435 24.7079 2.81013 24.6315 2.82556C24.58 2.83713 24.5303 2.8622 24.4941 2.90077C24.4482 2.95091 24.4139 3.00877 24.3891 3.07433C24.3566 3.14954 24.3146 3.25368 24.2669 3.37517L24.2115 3.54681C23.9346 3.35589 23.6387 3.1939 23.3294 3.06276C22.726 2.80821 22.0807 2.68093 21.4277 2.68671C21.0115 2.68671 20.5972 2.73492 20.1924 2.83713L20.1179 2.85642C19.9385 2.90463 19.7628 2.96248 19.591 3.03191H19.5833L19.4974 3.06855C19.3084 3.14762 19.1232 3.24018 18.9456 3.34239C18.5848 3.55066 18.2525 3.80715 17.9585 4.10413C17.3609 4.70774 16.9294 5.45792 16.7079 6.28137C16.475 7.15111 16.475 8.06906 16.7079 8.94073C16.7308 9.02365 16.7556 9.10465 16.7824 9.18564C16.79 9.21071 16.7996 9.23771 16.8072 9.26085C17.3284 10.7921 18.5695 11.9626 20.1198 12.3811C20.5475 12.4987 20.9905 12.5566 21.4334 12.5547C21.5175 12.5547 21.6015 12.5547 21.6855 12.5489C22.0387 12.5315 22.3881 12.4756 22.7299 12.3811C23.1385 12.2693 23.5299 12.1034 23.8965 11.8894L23.9308 11.8681C23.9537 11.9318 23.9747 11.9916 23.9957 12.0494C24.0186 12.115 24.053 12.1786 24.0969 12.2326C24.1389 12.2847 24.1924 12.3252 24.2535 12.3503C24.3337 12.3811 24.4215 12.3946 24.5074 12.3908H25.9757C26.0406 12.3908 26.1055 12.3811 26.1704 12.3676C26.3175 12.3213 26.4416 12.2172 26.5141 12.0783C26.5447 11.9993 26.558 11.9164 26.558 11.8334V3.3636C26.558 3.28068 26.5428 3.19968 26.5103 3.12255ZM19.4019 6.70178C19.4974 6.42215 19.6444 6.16181 19.8334 5.93425C20.0206 5.71248 20.2535 5.53506 20.5151 5.41163C20.5475 5.39621 20.5819 5.38078 20.6163 5.36728L20.6564 5.35185C20.8874 5.26893 21.1318 5.2265 21.3762 5.22843C21.695 5.2265 22.012 5.29207 22.3041 5.42128L22.3175 5.42706C22.5618 5.55048 22.7776 5.72212 22.9513 5.93425C23.1365 6.16181 23.2778 6.42215 23.3676 6.70178C23.5623 7.30153 23.5623 7.94757 23.3676 8.54732C23.2778 8.82116 23.1365 9.07572 22.9513 9.29557C22.7681 9.50963 22.5408 9.67933 22.285 9.79697C22.0101 9.92232 21.7122 9.98596 21.4124 9.98017C21.105 9.98403 20.7996 9.92232 20.5189 9.79697C20.2611 9.67933 20.0301 9.50963 19.8411 9.29557C19.6502 9.07765 19.5031 8.82309 19.4096 8.54732C19.2053 7.9495 19.2053 7.2996 19.4096 6.70178H19.4058H19.4019Z" fill="#F7F7F7"/>
<path id="Caminho_19858" d="M75.8298 3.11467C75.7974 3.04717 75.7497 2.98739 75.6924 2.94111C75.6351 2.89482 75.5721 2.86011 75.5034 2.83504C75.4365 2.80997 75.3659 2.79647 75.2952 2.79647H74.1859C74.1038 2.79454 74.0217 2.80804 73.9434 2.83504C73.8862 2.85818 73.8346 2.89482 73.7945 2.94303C73.7525 2.9951 73.7181 3.05489 73.6971 3.12045L73.615 3.3538L73.594 3.42129C73.3745 3.28437 73.1454 3.16481 72.9086 3.06453C72.3568 2.82925 71.7668 2.70198 71.1673 2.68848H71.005C70.5621 2.68848 70.1191 2.7444 69.6914 2.86204C69.2809 2.97389 68.8876 3.13781 68.5191 3.35187C68.1582 3.56014 67.826 3.81663 67.532 4.11361C67.238 4.4106 66.9821 4.74422 66.7721 5.10677C66.6212 5.36904 66.4933 5.64482 66.394 5.93023C66.352 6.04786 66.3158 6.16936 66.2814 6.29278C65.9282 7.58871 66.1057 8.97335 66.7721 10.1362C67.4117 11.2489 68.4618 12.0608 69.6914 12.3925C70.1191 12.5102 70.5621 12.568 71.005 12.5661C71.4442 12.5661 71.8814 12.5102 72.3053 12.3925C72.5649 12.3212 72.8189 12.2267 73.0633 12.1129C73.0002 12.3135 72.8914 12.4967 72.7463 12.6471C72.584 12.8187 72.395 12.9653 72.1888 13.0791C71.9749 13.1986 71.7439 13.2873 71.5072 13.3452C71.278 13.403 71.0432 13.4339 70.8084 13.4358C70.6747 13.4358 70.5239 13.4281 70.3616 13.4165C70.1917 13.403 70.0217 13.376 69.8556 13.3336C69.6838 13.2912 69.5177 13.2333 69.3573 13.162C69.1988 13.0906 69.0537 12.9942 68.9296 12.8727C68.8131 12.7724 68.6718 12.7107 68.5191 12.6934C68.4504 12.6934 68.3835 12.7126 68.3243 12.7493C68.2537 12.7975 68.1888 12.8534 68.1315 12.919L67.4232 13.9044C67.3372 14.0201 67.2876 14.159 67.2819 14.3036C67.28 14.4001 67.3067 14.4965 67.3563 14.5775C67.406 14.6585 67.4709 14.7279 67.5453 14.7838C67.7745 14.9863 68.0265 15.1599 68.2995 15.2987C68.584 15.4472 68.88 15.5687 69.1854 15.6632C69.4871 15.7577 69.7945 15.829 70.1057 15.8773C70.3921 15.9235 70.6804 15.9505 70.9706 15.9525C71.6294 15.9583 72.2843 15.8464 72.9067 15.6227C74.0943 15.2023 75.0413 14.2824 75.5053 13.1022C75.7687 12.4369 75.8967 11.7272 75.8852 11.0117V3.35765C75.8852 3.27473 75.8699 3.19181 75.8337 3.1166L75.8298 3.11467ZM71.8547 9.79873C71.5797 9.92408 71.2819 9.98772 70.9802 9.98386C70.6728 9.98772 70.3673 9.92601 70.0847 9.79873C69.827 9.6811 69.5959 9.51139 69.4069 9.29733C69.216 9.07941 69.069 8.82486 68.9754 8.54909C68.9258 8.41602 68.8876 8.2791 68.8628 8.14025L68.857 8.10168C68.8322 7.94162 68.8189 7.78156 68.8189 7.61956C68.817 7.30715 68.8666 6.99667 68.9678 6.70161C69.0633 6.42199 69.2103 6.16164 69.3993 5.93409C69.5864 5.71231 69.8174 5.53489 70.0771 5.41147C70.3578 5.28033 70.6633 5.21477 70.9726 5.22055C71.5683 5.20705 72.1391 5.46933 72.5191 5.93409C72.7043 6.16164 72.8456 6.42199 72.9353 6.70161C73.1301 7.30137 73.1301 7.9474 72.9353 8.54716C72.8475 8.821 72.7043 9.07556 72.5191 9.2954C72.3683 9.47089 72.1888 9.61746 71.9864 9.72931C71.9425 9.75438 71.9005 9.77559 71.8547 9.79873Z" fill="#F7F7F7"/>
<path id="Caminho_19859" d="M9.58625 3.72223L9.23112 5.14158C9.08219 5.66998 8.76333 5.78569 8.42539 5.65263C8.11799 5.54271 7.79722 5.47907 7.47073 5.46364C6.36524 5.46364 5.76572 6.20224 5.76572 7.31882V11.5383C5.76572 12.0879 5.46787 12.408 4.90462 12.408H3.36763C2.93422 12.4505 2.54854 12.1303 2.50653 11.6926C2.5008 11.6405 2.5008 11.5884 2.50653 11.5364V5.83969C2.50653 5.66998 2.43207 5.57549 2.31942 5.57549C2.13231 5.57549 1.90701 5.72591 1.7008 5.74519C1.55188 5.76448 1.32849 5.68734 1.21393 5.21679L0.950445 3.96522C0.818702 3.47346 0.912258 3.22662 1.32276 3.01834C1.76381 2.81007 2.24305 2.70015 2.72992 2.69629C3.70367 2.69629 4.64114 3.07234 5.05355 4.07707C5.64925 3.20733 6.53326 2.69629 7.76859 2.69629C8.22682 2.69629 8.68123 2.76571 9.11656 2.90456C9.43541 3.01834 9.73517 3.17069 9.58625 3.71838V3.72223Z" fill="#F7F7F7"/>
<path id="Caminho_19860" d="M17.0613 6.03834C16.9505 5.66229 16.7921 5.3036 16.5878 4.96997C16.3816 4.63442 16.1372 4.32394 15.8584 4.04816C15.5777 3.76854 15.2627 3.52555 14.9209 3.32692C14.5792 3.12443 14.2126 2.96822 13.8307 2.86023C13.4412 2.75031 13.0365 2.69438 12.6317 2.69438C12.1964 2.69245 11.7629 2.75224 11.3448 2.87566C10.9801 2.98365 10.6288 3.13407 10.3004 3.32692C10.3176 3.51976 10.2985 3.71454 10.245 3.9016L9.88992 5.31324L9.88419 5.33252C9.81355 5.61601 9.66653 5.87442 9.46032 6.07884C9.24457 6.28519 8.96008 6.39896 8.66414 6.39704C8.50185 6.39704 8.34147 6.36618 8.18872 6.3064L8.10662 6.28133L8.09708 6.31797C7.99016 6.73645 7.9367 7.16649 7.9367 7.59847C7.93097 8.27343 8.06844 8.94454 8.33956 9.56165C8.59923 10.1498 8.96772 10.6821 9.42596 11.1295C10.3749 12.0455 11.6369 12.5527 12.9486 12.5469C13.5443 12.5508 14.1343 12.4331 14.6842 12.2056C15.2283 11.9799 15.7267 11.6579 16.1582 11.2548C16.2326 11.2008 16.2976 11.1353 16.3529 11.062C16.4083 10.9868 16.4369 10.8961 16.435 10.8036C16.435 10.7496 16.4274 10.6937 16.414 10.6416C16.3911 10.576 16.3567 10.5162 16.309 10.4661L15.5205 9.56165C15.4517 9.48837 15.3773 9.4228 15.2971 9.36495C15.1863 9.28202 15.0355 9.27624 14.9171 9.34759C14.8446 9.39002 14.7777 9.44016 14.7128 9.49415C14.6078 9.59636 14.4875 9.68507 14.3596 9.7545C14.2069 9.84128 14.0465 9.91263 13.8804 9.97241C13.7009 10.0361 13.5195 10.0862 13.3324 10.1228C13.151 10.1595 12.9658 10.1788 12.7825 10.1788C12.5687 10.1788 12.3567 10.1498 12.1486 10.0958C11.9233 10.0399 11.7114 9.94734 11.5166 9.82006C11.3104 9.68507 11.1329 9.50958 10.9935 9.30516C10.8331 9.06411 10.7319 8.78834 10.6956 8.50099H16.057C16.2956 8.50678 16.5343 8.48942 16.7692 8.44507C16.9047 8.42193 17.0288 8.35057 17.1147 8.24065C17.1911 8.12301 17.2312 7.98609 17.2293 7.84531C17.2369 7.6814 17.2408 7.46734 17.2408 7.20699C17.2388 6.80973 17.1797 6.41632 17.0651 6.03834H17.0613ZM10.772 6.36618C10.856 6.18683 10.9591 6.01906 11.0813 5.86285C11.2073 5.69893 11.3505 5.55044 11.509 5.4193C11.6637 5.29203 11.8355 5.18596 12.0188 5.10689C12.1964 5.02975 12.3873 4.99118 12.5801 4.99118C12.8188 4.98733 13.0575 5.02204 13.2847 5.09532C13.4794 5.16089 13.6589 5.26117 13.8212 5.38845C13.9777 5.5138 14.119 5.66036 14.2374 5.82428C14.3634 5.99592 14.4761 6.17719 14.5754 6.36618H10.7701H10.772Z" fill="#F7F7F7"/>
<path id="Caminho_19861" d="M35.654 0.341776C35.6197 0.272352 35.5719 0.210641 35.5127 0.160501C35.4516 0.110361 35.3848 0.0698628 35.3104 0.0428642C35.2454 0.0158657 35.1767 0.00236644 35.1061 0.000437976H33.4297C33.2674 -0.0111328 33.1089 0.0486496 32.9944 0.166286C32.897 0.278137 32.8454 0.422772 32.8493 0.573192V3.15734C32.7843 3.12648 32.7175 3.09563 32.6507 3.0667C32.0473 2.81214 31.4001 2.68486 30.7471 2.69065C30.6421 2.69065 30.5352 2.69065 30.4321 2.70029C29.6683 2.74657 28.9256 2.97028 28.2612 3.35404C27.9003 3.56424 27.5681 3.8188 27.2741 4.11579C26.98 4.41277 26.7261 4.74639 26.5142 5.10895C26.4397 5.24008 26.3691 5.37315 26.3061 5.51199C25.8135 6.58808 25.7123 7.80687 26.0235 8.95238C26.0731 9.13558 26.1342 9.31493 26.2049 9.49235C26.7662 10.9213 27.9633 11.9994 29.4354 12.3966C29.8631 12.5143 30.3061 12.5721 30.749 12.5702C31.5815 12.5702 32.4006 12.358 33.1261 11.9492C33.1452 11.9936 33.1643 12.0341 33.1796 12.0746C33.2044 12.1382 33.2388 12.1999 33.2788 12.2539C33.3151 12.3021 33.3629 12.3388 33.4163 12.3638C33.4889 12.3928 33.5691 12.4063 33.6473 12.4024H35.108C35.5089 12.4024 35.7113 12.2096 35.7113 11.8239V0.573192C35.7113 0.492197 35.6922 0.41313 35.6559 0.341776H35.654ZM28.6488 8.31598C28.6411 8.28899 28.6354 8.26199 28.6297 8.23306C28.5877 8.03443 28.5667 7.83194 28.5686 7.62945C28.5686 7.31511 28.6201 7.0027 28.7251 6.70572C28.8206 6.42416 28.9695 6.16382 29.1605 5.93819C29.3495 5.71834 29.5805 5.53899 29.8421 5.41557C30.1189 5.28444 30.4206 5.21887 30.7242 5.22272C30.9438 5.22272 31.1633 5.25165 31.3753 5.31336C31.4536 5.33843 31.5299 5.36929 31.6025 5.40593C31.8583 5.52935 32.0855 5.7087 32.265 5.92854C32.4483 6.15803 32.5896 6.41837 32.6793 6.698C32.8741 7.29775 32.8741 7.94379 32.6793 8.54354C32.5915 8.81739 32.4483 9.07194 32.2631 9.29179C32.0798 9.50392 31.8545 9.67555 31.6006 9.79319C31.3256 9.91854 31.0278 9.98218 30.7261 9.97832C30.4187 9.98218 30.1132 9.92047 29.8306 9.79319C29.5729 9.67555 29.3419 9.50585 29.1528 9.29179C28.9619 9.07387 28.8149 8.81931 28.7213 8.54354C28.7137 8.52619 28.708 8.5069 28.7022 8.48955C28.6831 8.43169 28.666 8.37384 28.6507 8.31213L28.6488 8.31598Z" fill="#F7F7F7"/>
<path id="Caminho_19862" d="M49.8706 1.35954C49.8611 1.22454 49.9165 1.09534 50.0196 1.01048C50.1532 0.915988 50.3002 0.840778 50.4549 0.786781L52.1484 0.190885C52.1733 0.1851 52.1981 0.183171 52.2229 0.183171H52.2859C52.4291 0.163887 52.5704 0.225598 52.6544 0.345162C52.7212 0.476298 52.7518 0.622862 52.7441 0.769425L52.7365 2.83867H53.7561C53.8993 2.83288 54.0387 2.88302 54.1437 2.98138C54.2506 3.09708 54.304 3.25329 54.2926 3.4095V4.86163C54.3079 5.02941 54.2525 5.19718 54.1437 5.32446C54.0387 5.42474 53.8993 5.47681 53.7561 5.47103H52.7346L52.7422 11.8195C52.7537 11.9815 52.6926 12.1397 52.578 12.2515C52.4501 12.3576 52.2878 12.4116 52.1236 12.4019H50.4415C50.0577 12.4019 49.8668 12.2091 49.8687 11.8234L49.8611 5.47488H49.0935C48.7117 5.47488 48.5208 5.27239 48.5208 4.86549V3.4095C48.5208 3.02766 48.7117 2.83674 49.0935 2.83674H49.8611L49.8668 1.35761L49.8706 1.35954Z" fill="#F7F7F7"/>
</g>
</g>
</g>
</g>
<defs>
<clipPath id="clip0_1_181">
<rect width="84.105" height="16.174" fill="white" transform="translate(0.89502)"/>
</clipPath>
</defs>
</svg>
